<svg xmlns="http://www.w3.org/2000/svg" width="43.779" height="48.964" viewBox="0 0 43.779 48.964">
  <g id="bill" transform="translate(-26.805 0.269)">
    <g id="Group_423" data-name="Group 423" transform="translate(27.005 0)">
      <g id="Group_422" data-name="Group 422" transform="translate(0 0)">
        <path id="Path_546" data-name="Path 546" d="M69.437,23.3h-7.01V.947A.947.947,0,0,0,60.81.278L58.126,2.961,55.443.278a.947.947,0,0,0-1.34,0L51.421,2.961,48.738.278a.947.947,0,0,0-1.34,0L44.715,2.961,42.032.278a.947.947,0,0,0-1.339,0L38.009,2.961,35.326.278a.947.947,0,0,0-1.34,0L31.3,2.961,28.621.278A.947.947,0,0,0,27,.972v42.6A4.931,4.931,0,0,0,31.93,48.5H65.459a4.931,4.931,0,0,0,4.925-4.925V24.248A.947.947,0,0,0,69.437,23.3ZM31.93,46.6A3.034,3.034,0,0,1,28.9,43.57V3.235L30.634,4.97a.947.947,0,0,0,1.34,0l2.683-2.683L37.34,4.97a.947.947,0,0,0,1.34,0l2.683-2.683L44.046,4.97a.947.947,0,0,0,1.339,0l2.683-2.683L50.751,4.97a.947.947,0,0,0,1.34,0l2.683-2.683L57.457,4.97a.947.947,0,0,0,1.339,0l1.736-1.736V24.248c0,.009,0,.017,0,.026v19.3A4.9,4.9,0,0,0,61.581,46.6H31.93ZM68.49,43.57a3.031,3.031,0,0,1-6.062,0V25.195H68.49V43.57Z" transform="translate(-27.005 0)" fill="#5fa01b" stroke="#5fa01b" stroke-width="0.4"/>
      </g>
    </g>
    <g id="Group_425" data-name="Group 425" transform="translate(41.117 8.763)">
      <g id="Group_424" data-name="Group 424" transform="translate(0)">
        <path id="Path_547" data-name="Path 547" d="M179.6,98.8a1.477,1.477,0,1,1,1.7-1.46.947.947,0,1,0,1.894,0,3.408,3.408,0,0,0-2.652-3.235V93.46a.947.947,0,1,0-1.894,0V94.1A3.408,3.408,0,0,0,176,97.337a3.487,3.487,0,0,0,3.6,3.354,1.477,1.477,0,1,1-1.7,1.46.947.947,0,1,0-1.894,0,3.408,3.408,0,0,0,2.652,3.235v.773a.947.947,0,0,0,1.894,0v-.773a3.408,3.408,0,0,0,2.652-3.235A3.487,3.487,0,0,0,179.6,98.8Z" transform="translate(-175.996 -92.513)" fill="#5fa01b" stroke="#5fa01b" stroke-width="0.4"/>
      </g>
    </g>
    <g id="Group_427" data-name="Group 427" transform="translate(51.438 15.047)">
      <g id="Group_426" data-name="Group 426">
        <path id="Path_548" data-name="Path 548" d="M287.764,158.856h-1.846a.947.947,0,0,0,0,1.894h1.846a.947.947,0,1,0,0-1.894Z" transform="translate(-284.971 -158.856)" fill="#5fa01b" stroke="#5fa01b" stroke-width="0.4"/>
      </g>
    </g>
    <g id="Group_429" data-name="Group 429" transform="translate(34.253 15.047)">
      <g id="Group_428" data-name="Group 428" transform="translate(0)">
        <path id="Path_549" data-name="Path 549" d="M106.323,158.856h-1.846a.947.947,0,1,0,0,1.894h1.846a.947.947,0,1,0,0-1.894Z" transform="translate(-103.53 -158.856)" fill="#5fa01b" stroke="#5fa01b" stroke-width="0.4"/>
      </g>
    </g>
    <g id="Group_431" data-name="Group 431" transform="translate(38.758 25.574)">
      <g id="Group_430" data-name="Group 430" transform="translate(0)">
        <path id="Path_550" data-name="Path 550" d="M167.049,270.007H152.044a.947.947,0,1,0,0,1.894h15.005a.947.947,0,1,0,0-1.894Z" transform="translate(-151.097 -270.007)" fill="#5fa01b" stroke="#5fa01b" stroke-width="0.4"/>
      </g>
    </g>
    <g id="Group_433" data-name="Group 433" transform="translate(33.773 25.574)">
      <g id="Group_432" data-name="Group 432">
        <path id="Path_551" data-name="Path 551" d="M100.085,270.285a.947.947,0,1,0,.278.67A.954.954,0,0,0,100.085,270.285Z" transform="translate(-98.468 -270.007)" fill="#5fa01b" stroke="#5fa01b" stroke-width="0.4"/>
      </g>
    </g>
    <g id="Group_435" data-name="Group 435" transform="translate(38.758 31.825)">
      <g id="Group_434" data-name="Group 434" transform="translate(0)">
        <path id="Path_552" data-name="Path 552" d="M167.049,336.005H152.044a.947.947,0,0,0,0,1.894h15.005a.947.947,0,0,0,0-1.894Z" transform="translate(-151.097 -336.005)" fill="#5fa01b" stroke="#5fa01b" stroke-width="0.4"/>
      </g>
    </g>
    <g id="Group_437" data-name="Group 437" transform="translate(33.773 31.825)">
      <g id="Group_436" data-name="Group 436">
        <path id="Path_553" data-name="Path 553" d="M100.085,336.283a.947.947,0,1,0,.278.67A.954.954,0,0,0,100.085,336.283Z" transform="translate(-98.468 -336.005)" fill="#5fa01b" stroke="#5fa01b" stroke-width="0.4"/>
      </g>
    </g>
    <g id="Group_439" data-name="Group 439" transform="translate(38.758 38.077)">
      <g id="Group_438" data-name="Group 438" transform="translate(0)">
        <path id="Path_554" data-name="Path 554" d="M167.049,402H152.044a.947.947,0,1,0,0,1.894h15.005a.947.947,0,0,0,0-1.894Z" transform="translate(-151.097 -402.003)" fill="#5fa01b" stroke="#5fa01b" stroke-width="0.4"/>
      </g>
    </g>
    <g id="Group_441" data-name="Group 441" transform="translate(33.773 38.077)">
      <g id="Group_440" data-name="Group 440">
        <path id="Path_555" data-name="Path 555" d="M100.085,402.281a.947.947,0,1,0,.278.67A.954.954,0,0,0,100.085,402.281Z" transform="translate(-98.468 -402.003)" fill="#5fa01b" stroke="#5fa01b" stroke-width="0.4"/>
      </g>
    </g>
  </g>
</svg>
