<svg id="calendar_12_" data-name="calendar (12)" xmlns="http://www.w3.org/2000/svg" width="41.989" height="41.989" viewBox="0 0 41.989 41.989">
  <g id="Group_456" data-name="Group 456">
    <g id="Group_455" data-name="Group 455">
      <ellipse id="Ellipse_185" data-name="Ellipse 185" cx="1.5" cy="2" rx="1.5" ry="2" transform="translate(30.306 15.306)" fill="#5fa01b"/>
      <path id="Path_561" data-name="Path 561" d="M35.428,3.28H33.3V1.64a1.64,1.64,0,0,0-3.28,0V3.28H22.553V1.64a1.64,1.64,0,0,0-3.28,0V3.28H11.891V1.64a1.64,1.64,0,1,0-3.28,0V3.28H6.561A6.568,6.568,0,0,0,0,9.841V35.428a6.568,6.568,0,0,0,6.561,6.561H19.108a1.64,1.64,0,1,0,0-3.28H6.561a3.284,3.284,0,0,1-3.28-3.28V9.841a3.284,3.284,0,0,1,3.28-3.28h2.05V8.2a1.64,1.64,0,0,0,3.28,0V6.561h7.381V8.2a1.64,1.64,0,0,0,3.28,0V6.561h7.463V8.2a1.64,1.64,0,0,0,3.28,0V6.561h2.132a3.284,3.284,0,0,1,3.28,3.28V19.19a1.64,1.64,0,1,0,3.28,0V9.841A6.568,6.568,0,0,0,35.428,3.28Z" fill="#5fa01b"/>
      <path id="Path_562" data-name="Path 562" d="M279.923,270a9.923,9.923,0,1,0,9.923,9.923A9.934,9.934,0,0,0,279.923,270Zm0,16.566a6.643,6.643,0,1,1,6.643-6.643A6.65,6.65,0,0,1,279.923,286.566Z" transform="translate(-247.857 -247.857)" fill="#5fa01b"/>
      <path id="Path_563" data-name="Path 563" d="M375.018,333.362h-.738V331.64a1.64,1.64,0,1,0-3.28,0V335a1.64,1.64,0,0,0,1.64,1.64h2.378a1.64,1.64,0,1,0,0-3.28Z" transform="translate(-340.574 -302.937)" fill="#5fa01b"/>
      <circle id="Ellipse_186" data-name="Ellipse 186" cx="2" cy="2" r="2" transform="translate(22.306 15.306)" fill="#5fa01b"/>
      <ellipse id="Ellipse_187" data-name="Ellipse 187" cx="2" cy="1.5" rx="2" ry="1.5" transform="translate(15.306 22.306)" fill="#5fa01b"/>
      <ellipse id="Ellipse_188" data-name="Ellipse 188" cx="1.5" cy="2" rx="1.5" ry="2" transform="translate(8.306 15.306)" fill="#5fa01b"/>
      <circle id="Ellipse_189" data-name="Ellipse 189" cx="1.5" cy="1.5" r="1.5" transform="translate(8.306 22.306)" fill="#5fa01b"/>
      <circle id="Ellipse_190" data-name="Ellipse 190" cx="1.5" cy="1.5" r="1.5" transform="translate(8.306 30.306)" fill="#5fa01b"/>
      <ellipse id="Ellipse_191" data-name="Ellipse 191" cx="2" cy="1.5" rx="2" ry="1.5" transform="translate(15.306 30.306)" fill="#5fa01b"/>
      <circle id="Ellipse_192" data-name="Ellipse 192" cx="2" cy="2" r="2" transform="translate(15.306 15.306)" fill="#5fa01b"/>
    </g>
  </g>
</svg>
