<svg xmlns="http://www.w3.org/2000/svg" width="57.269" height="57.269" viewBox="0 0 57.269 57.269">
  <g id="package_1_" data-name="package (1)" transform="translate(0 -0.002)">
    <g id="Group_446" data-name="Group 446" transform="translate(16.33 41.388)">
      <g id="Group_445" data-name="Group 445">
        <path id="Path_556" data-name="Path 556" d="M147.118,370a1.119,1.119,0,1,0,1.119,1.119A1.119,1.119,0,0,0,147.118,370Z" transform="translate(-145.999 -370.002)" fill="#5fa01b"/>
      </g>
    </g>
    <g id="Group_448" data-name="Group 448" transform="translate(0 0.002)">
      <g id="Group_447" data-name="Group 447">
        <path id="Path_557" data-name="Path 557" d="M50.35,21.254l6.591-6.591a1.119,1.119,0,0,0-.461-1.86L40.429,7.849a11.187,11.187,0,0,0-21.052-.842L.785,12.8a1.119,1.119,0,0,0-.458,1.859l6.765,6.765L2.825,28.539a1.118,1.118,0,0,0,.605,1.637l6.188,2.063v17.2a1.119,1.119,0,0,0,.726,1.047c3.784,1.419,17.842,6.691,17.917,6.718a1.114,1.114,0,0,0,.716.01l.01,0L49.121,50.5a1.119,1.119,0,0,0,.765-1.061V31.777l6.6-2.074a1.119,1.119,0,0,0,.456-1.858ZM40.938,11.187c0-.284-.012-.568-.033-.85l13.142,4.056-5.581,5.581-9.119-3.039A11.217,11.217,0,0,0,40.938,11.187ZM21.288,8.276A8.948,8.948,0,0,1,38.7,11.187a8.947,8.947,0,0,1-8.948,8.948,8.955,8.955,0,0,1-8.464-11.86ZM3.217,14.389,18.686,9.565a11.278,11.278,0,0,0-.119,1.622,11.118,11.118,0,0,0,1.24,5.119l-11,3.668Zm2.244,14.1L9,22.6l17.96,5.987L23.421,34.48ZM27.515,54.538,11.856,48.666V32.984c12.321,4.085,11.719,3.96,12.062,3.96a1.119,1.119,0,0,0,.959-.543L27.515,32Zm1.119-27.752-16.6-5.532,9.037-3.012a11.182,11.182,0,0,0,16.853.578l7.3,2.434ZM47.649,48.635,29.752,54.6V31.154l3.965,4.956a1.119,1.119,0,0,0,1.209.368l12.722-4ZM34.986,34.115l-4.477-5.6,17.956-5.985,5.589,5.589Z" transform="translate(0 -0.002)" fill="#5fa01b"/>
      </g>
    </g>
    <g id="Group_450" data-name="Group 450" transform="translate(20.553 42.866)">
      <g id="Group_449" data-name="Group 449">
        <path id="Path_558" data-name="Path 558" d="M187.756,384.223l-2.488-.933a1.119,1.119,0,0,0-.786,2.095l2.488.933a1.119,1.119,0,0,0,.786-2.095Z" transform="translate(-183.757 -383.219)" fill="#5fa01b"/>
      </g>
    </g>
    <g id="Group_452" data-name="Group 452" transform="translate(16.33 46.061)">
      <g id="Group_451" data-name="Group 451">
        <path id="Path_559" data-name="Path 559" d="M154.218,414.367l-6.711-2.517a1.119,1.119,0,1,0-.786,2.095l6.711,2.517a1.119,1.119,0,0,0,.786-2.095Z" transform="translate(-145.995 -411.779)" fill="#5fa01b"/>
      </g>
    </g>
    <g id="Group_454" data-name="Group 454" transform="translate(25.278 6.713)">
      <g id="Group_453" data-name="Group 453">
        <path id="Path_560" data-name="Path 560" d="M236.856,60.329a1.119,1.119,0,0,0-1.582,0l-5.92,5.92L227.907,64.8a1.119,1.119,0,0,0-1.582,1.582l2.237,2.237a1.119,1.119,0,0,0,1.582,0l6.711-6.711A1.119,1.119,0,0,0,236.856,60.329Z" transform="translate(-225.998 -60.001)" fill="#5fa01b"/>
      </g>
    </g>
  </g>
</svg>
