<svg xmlns="http://www.w3.org/2000/svg" width="22.434" height="22.434" viewBox="0 0 22.434 22.434">
  <path id="noun_avatar_2102861_2_" data-name="noun_avatar_2102861 (2)" d="M26.243,22.322l-4.958-2.035a.7.7,0,0,1-.442-.647V18.481a.658.658,0,0,1,.14-.412,9.759,9.759,0,0,0,2.032-5.939c0-3.667-2.33-6.13-5.8-6.13s-5.8,2.464-5.8,6.13a9.76,9.76,0,0,0,2.032,5.939.658.658,0,0,1,.14.411v1.159a.7.7,0,0,1-.442.647L8.192,22.322A3.507,3.507,0,0,0,6,25.571V27.5a.935.935,0,0,0,.935.935H27.5a.935.935,0,0,0,.935-.935V25.571A3.507,3.507,0,0,0,26.243,22.322Zm.322,4.243H7.87v-.994A1.644,1.644,0,0,1,8.9,24.051l4.958-2.035a2.564,2.564,0,0,0,1.6-2.377V18.481a2.533,2.533,0,0,0-.552-1.582,7.946,7.946,0,0,1-1.62-4.768c0-3.141,2.029-4.261,3.928-4.261s3.928,1.119,3.928,4.261a7.945,7.945,0,0,1-1.62,4.768,2.534,2.534,0,0,0-.552,1.582v1.159a2.564,2.564,0,0,0,1.6,2.377l4.958,2.035a1.644,1.644,0,0,1,1.032,1.52Z" transform="translate(-6 -6)"/>
</svg>
