<svg id="noun_cart_2102832_4_" data-name="noun_cart_2102832 (4)" xmlns="http://www.w3.org/2000/svg" width="25.977" height="25.977" viewBox="0 0 25.977 25.977">
  <path id="Path_5" data-name="Path 5" d="M7.082,8.165H8.89L11.6,20.392a3.884,3.884,0,0,0-2.21,3.592,3.7,3.7,0,0,0,3.5,3.866H27.239a1.082,1.082,0,1,0,0-2.165H12.887a1.573,1.573,0,0,1-1.332-1.7,1.573,1.573,0,0,1,1.332-1.7H27.239a1.083,1.083,0,0,0,1.018-.716l3.655-10.144a1.082,1.082,0,0,0-1.018-1.449H11.508l-.692-3.124A1.082,1.082,0,0,0,9.759,6H7.082a1.082,1.082,0,1,0,0,2.165Zm22.271,3.973-2.875,7.979H13.756l-1.768-7.979H29.354Z" transform="translate(-6 -6)"/>
  <path id="Path_6" data-name="Path 6" d="M19.427,50a1.082,1.082,0,1,0,0,2.165H20.8A1.082,1.082,0,0,0,20.8,50Z" transform="translate(-11.664 -26.188)"/>
  <path id="Path_7" data-name="Path 7" d="M37.879,50a1.082,1.082,0,0,0,0,2.165h1.374a1.082,1.082,0,1,0,0-2.165Z" transform="translate(-20.13 -26.188)"/>
</svg>
